<svg width="128" height="128" viewBox="0 0 128 128" fill="none" xmlns="http://www.w3.org/2000/svg">
<path d="M63.8913 5.76003L14.0801 34.7813V92.5788L63.8913 121.6L113.702 92.5788V34.7813L63.8913 5.76003Z" fill="url(#paint0_angular_1209_30)"/>
<path d="M112.979 35.1973L112.979 92.1627L63.8917 120.762L14.8044 92.1627L14.8044 35.1973L63.8917 6.59794L112.979 35.1973Z" stroke="url(#paint1_angular_1209_30)" stroke-width="1.448"/>
<path d="M63.8913 7.61346L15.4702 35.706V91.6541L63.8913 119.747L112.312 91.6541V35.706L63.8913 7.61346Z" fill="url(#paint2_linear_1209_30)"/>
<g opacity="0.7" filter="url(#filter0_df_1209_30)">
<path d="M108.606 38.0943V88.8024L103.771 91.5498L102.26 87.5481L104.315 86.3536V40.4834L64.1234 17.5483L23.932 40.4834V86.3536L64.1234 109.289L90.5954 94.1778C92.6503 92.9833 93.436 90.415 92.3481 88.3246L64.3047 33.8537L40.6129 79.7837L64.1234 65.0311L82.9802 76.5584L86.1834 84.6215L64.1839 71.0635L39.4042 86.5328C38.7998 86.8911 38.135 87.0703 37.4702 87.0703C36.7449 87.0703 36.0196 86.8911 35.4153 86.4731C33.9043 85.4577 33.4208 83.4867 34.2065 81.8741L61.4037 28.6575C62.552 26.4476 65.6948 26.4476 66.8432 28.6575L98.5128 89.6386C99.6007 91.729 98.815 94.357 96.7601 95.5515L64.1234 114.186L19.6409 88.8024V38.0943L64.1234 12.7104L108.606 38.0943Z" fill="#EFEEEE"/>
</g>
<defs>
<filter id="filter0_df_1209_30" x="16.7449" y="11.9864" width="94.7571" height="107.992" filterUnits="userSpaceOnUse" color-interpolation-filters="sRGB">
<feFlood flood-opacity="0" result="BackgroundImageFix"/>
<feColorMatrix in="SourceAlpha" type="matrix" values="0 0 0 0 0 0 0 0 0 0 0 0 0 0 0 0 0 0 127 0" result="hardAlpha"/>
<feOffset dy="2.896"/>
<feGaussianBlur stdDeviation="1.448"/>
<feComposite in2="hardAlpha" operator="out"/>
<feColorMatrix type="matrix" values="0 0 0 0 0 0 0 0 0 0 0 0 0 0 0 0 0 0 0.25 0"/>
<feBlend mode="normal" in2="BackgroundImageFix" result="effect1_dropShadow_1209_30"/>
<feBlend mode="normal" in="SourceGraphic" in2="effect1_dropShadow_1209_30" result="shape"/>
<feGaussianBlur stdDeviation="0.362" result="effect2_foregroundBlur_1209_30"/>
</filter>
<radialGradient id="paint0_angular_1209_30" cx="0" cy="0" r="1" gradientUnits="userSpaceOnUse" gradientTransform="translate(63.8913 63.68) rotate(90) scale(57.92 49.8112)">
<stop stop-color="#B6B6B6" stop-opacity="0.9"/>
<stop offset="1" stop-color="#DFDFDF" stop-opacity="0"/>
</radialGradient>
<radialGradient id="paint1_angular_1209_30" cx="0" cy="0" r="1" gradientUnits="userSpaceOnUse" gradientTransform="translate(18.3165 19.831) rotate(-21.9774) scale(37.5986 32.5704)">
<stop stop-color="#21529E"/>
<stop offset="1" stop-color="#0064FF" stop-opacity="0"/>
</radialGradient>
<linearGradient id="paint2_linear_1209_30" x1="63.8913" y1="7.61346" x2="63.8913" y2="119.747" gradientUnits="userSpaceOnUse">
<stop stop-color="#002D74"/>
<stop offset="1" stop-color="#0345AC" stop-opacity="0.74"/>
</linearGradient>
</defs>
</svg>
